<?xml version="1.0" encoding="utf-8"?>
<!-- Generator: Adobe Illustrator 25.0.0, SVG Export Plug-In . SVG Version: 6.00 Build 0)  -->
<svg version="1.1" xmlns="http://www.w3.org/2000/svg" xmlns:xlink="http://www.w3.org/1999/xlink" x="0px" y="0px"
	 viewBox="0 0 1000 1000" style="enable-background:new 0 0 1000 1000;" xml:space="preserve">
<style type="text/css">
	.st0{fill:#0E5257;}
</style>
<g id="Your_design">
</g>
<g id="Guides">
	<path id="XMLID_153_" class="st0" d="M697.63,437.37C697.17,328.54,608.43,240,499.8,240c-108.86,0-197.43,88.57-197.43,197.43
		c0,55.06,25.78,103.39,54.45,152.09c31.03,53.61,67.23,102.43,107.53,145.38h-42.92c-6.93,0-12.55,5.62-12.55,12.55
		S414.51,760,421.43,760h160.13c6.93,0,12.55-5.62,12.55-12.55s-5.62-12.55-12.55-12.55H536c35.3-36.31,67.21-77.04,94.93-121.39
		C664.68,559.08,697.63,500.65,697.63,437.37z M499.79,474.16c8.52,0,61.23-0.54,95.34-12.96c-12.38,40.93-50.41,70.84-95.33,70.84
		c-44.93,0-82.98-29.9-95.36-70.84C438.56,473.62,491.26,474.16,499.79,474.16z M401.73,432.44c9-6.56,42.66-16.63,98.05-16.63
		s89.05,10.07,98.05,16.63c-9,6.56-42.66,16.63-98.05,16.63S410.73,439,401.73,432.44z M512.35,723.18V556.5
		c62.89-6.31,112.15-59.54,112.15-124.06c0-40.56-111.95-41.73-124.71-41.73c-12.76,0-124.71,1.17-124.71,41.73
		c0,64.53,49.28,117.75,112.18,124.06v166.12c-40.89-42.77-77.48-91.71-108.76-145.76c-26.89-45.67-51.02-90.7-51.02-139.44
		c0-95.02,77.31-172.33,172.33-172.33c94.85,0,172.33,77.33,172.73,172.33c0,56.63-31.09,111.51-62.9,162.83
		C581.41,645.4,548.7,686.68,512.35,723.18z"/>
</g>
</svg>
